<?xml version="1.0" encoding="utf-8" ?><svg xmlns="http://www.w3.org/2000/svg" xmlns:xlink="http://www.w3.org/1999/xlink" width="1024" height="1024" viewBox="0 0 1024 1024"><path fill="#090909" d="M581.261 89.6784C608.002 85.0589 632.074 104.831 627.491 132.801C622.13 165.518 587.296 168.114 575.064 195.929C571.301 204.487 571.968 215.769 579.173 222.978C593.019 233.772 600.697 214.917 607.448 206.054C613.265 198.417 626.311 189.23 635.452 197.238C646.277 206.334 633.299 221.365 634.029 230.422C636.882 238.846 662.503 224.361 667.44 222.334C684.741 215.231 716.503 214.965 720.494 238.634C723.486 256.38 703.18 266.615 688.176 269.963C671.616 273.657 642.725 293.548 661.669 311.836C670.305 317.639 680.213 315.02 689.673 312.891C725.053 304.929 796.776 339.824 770.696 383.477C760.724 400.168 730.676 397.343 723.677 377.579C720.937 372.271 719.554 364.498 716.173 359.674C698.221 334.061 667.586 323.612 647.315 350.034C649.389 357.115 653.412 365.846 656.202 372.926C660.288 383.265 663.716 393.853 666.468 404.625C684.635 476.528 674.021 551.923 631.454 613.619C627.415 619.473 622.836 625.199 618.656 631.152C603.164 653.046 594.252 678.262 590.93 704.749C588.678 722.71 594.33 738.738 597.901 756.123L616.292 842.993C619.978 860.014 625.859 876.431 620.908 893.695C617.095 906.992 611.127 914.538 601.348 923.855C563.238 954.907 486.486 955.026 443.244 936.078C423.009 927.211 405.023 911.052 401.93 888.208C399.973 873.754 404.771 856.294 407.864 842.185L423.95 768.517C426.247 758.476 428.418 748.407 430.463 738.311C433.643 723.353 435.32 716.681 433.014 700.812C429.822 677.739 421.468 655.682 408.572 636.285C403.7 629.063 398.05 622.351 393.097 614.903C382.996 600.006 374.428 584.125 367.526 567.503C340.977 502.946 343.952 428.621 370.713 364.656C353.759 356.359 365.437 345.876 361.491 334.551C353.69 312.165 322.491 320.965 305.71 311.091C291.822 303.794 284.175 283.784 293.644 270.11C308.063 249.289 341.602 257.315 358.339 270.877C362.542 274.283 376.837 287.553 381.616 286.428C383.365 283.482 380.681 277.55 380.254 274.48C377.64 255.66 397.657 249.073 412.323 256.029C419.059 259.224 424.7 263.951 430.668 266.428L431.293 266.681C430.002 261.777 427.725 256.358 426.099 251.415C417.582 225.528 418.338 190.629 446.919 177.277C455.481 173.278 465.279 172.841 474.163 176.06C503.979 187.113 503.043 220.354 507.507 221.989C517.172 218.602 513.594 195.094 514.044 187.139C515.512 161.173 519.657 136.735 537.108 116.287C550.074 101.093 560.95 91.9418 581.261 89.6784Z"/><path fill="#FDC632" d="M303.744 265.723C305.157 264.778 306.656 263.969 308.22 263.304C323.935 256.778 343.595 264.453 356.315 274.205C363.091 278.831 370.453 286.682 378.049 289.65C386.219 292.284 388.619 287.877 385.87 280.331C382.838 272.009 382.337 263.3 391.67 258.905C398.276 255.733 404.23 255.905 410.76 259.1C417.024 262.164 426.479 272.512 433.992 268.713C434.728 267.789 435.751 266.5 435.212 265.283C423.334 238.474 416.616 201.274 445.319 182.174C461.592 171.346 482.436 180.226 492.613 195.932C497.067 202.806 499.448 209.755 500.793 217.867C501.328 221.047 503.037 225.718 507.094 225.447C518.086 224.143 518.629 207.552 518.301 199.151C517.109 168.698 522.039 139.181 542.587 115.342C560.652 94.383 592.971 83.5248 615.739 103.462C619.517 107.641 621.302 110.297 622.698 115.529C629.613 141.703 611.061 157.057 591.51 170.203C580.442 177.645 570.993 190.715 569.391 204.354C567.382 221.461 584.863 238.734 599.114 224.674C599.667 224.125 600.207 223.562 600.734 222.986C606.438 212.711 622.386 187.338 635.468 203.256C635.525 203.673 635.594 204.087 635.66 204.503C637.015 213.05 624.875 228.756 632.828 234.691C635.707 236.84 639.406 236.547 642.744 235.916C649.122 234.709 654.44 232.258 660.419 229.964C673.574 223.434 687.201 218.758 702.027 223.34C706.753 224.8 711.861 228.039 714.386 232.421C720.026 243.788 715.929 253.424 705.283 258.981C687.517 268.254 661.532 270.027 652.935 291.828L651.51 295.407C650.372 290.02 648.435 284.623 646.46 279.479C645.699 277.982 644.718 276.366 643.875 274.897C631.501 262.579 622.965 270.673 609.934 274.958C597.769 278.958 595.963 257.652 586.122 253.604C581.359 251.644 579.025 250.567 573.454 251.43C550.613 253.545 549.163 280.733 530.679 285.639C527.716 286.426 522.647 286.074 519.734 284.812C505.685 278.725 511.901 262.111 500.191 254.019C497.268 251.999 493.388 251.828 489.94 252.59C471.643 256.637 480.705 279.002 472.81 290.541C471.03 293.142 468.289 295.38 465.524 296.746C450.938 304.555 439.679 288.024 425.477 291.377C416.211 293.565 411.49 302.843 411.489 311.742C411.489 317.088 412.881 323.964 409.827 328.532C407.129 332.568 401.152 334.961 397.311 337.833C387.174 345.758 378.547 351.144 371.902 362.441C367.004 358.5 365.92 356.996 364.297 351.002C364.848 349.075 365.304 347.122 365.664 345.15C370.493 317.787 340.134 314.242 320.726 312.247C298.526 309.965 281.569 280.976 303.744 265.723Z"/><path fill="#DA942E" d="M303.744 265.723C301.403 274.33 298.796 278.333 303.702 287.875C306.118 292.7 312.894 298.685 318.36 299.623C327.92 301.265 334.044 299.947 343.577 303.129C357.93 307.922 364.374 320.019 377.131 325.816C389.103 331.257 399.658 322.55 401.527 310.792C404.685 298.78 402.652 288.756 413.643 280.591C426.955 270.702 449.577 293.097 460.256 284.472C469.446 277.05 463.156 253.486 479.173 244.521C495.928 235.143 510.098 241.712 519.916 256.991C524.28 264.949 530.656 273.613 539.59 265.838C552.216 254.85 563.021 240.292 581.924 242.209C596.058 243.642 597.881 261.167 610.757 263.965C617.467 264.785 624.591 260.502 634.407 261.036C638.962 263.785 644.972 268.888 643.875 274.897C631.501 262.579 622.965 270.673 609.934 274.958C597.769 278.958 595.963 257.652 586.122 253.604C581.359 251.644 579.025 250.567 573.454 251.43C550.613 253.545 549.163 280.733 530.679 285.639C527.716 286.426 522.647 286.074 519.734 284.812C505.685 278.725 511.901 262.111 500.191 254.019C497.268 251.999 493.388 251.828 489.94 252.59C471.643 256.637 480.705 279.002 472.81 290.541C471.03 293.142 468.289 295.38 465.524 296.746C450.938 304.555 439.679 288.024 425.477 291.377C416.211 293.565 411.49 302.843 411.489 311.742C411.489 317.088 412.881 323.964 409.827 328.532C407.129 332.568 401.152 334.961 397.311 337.833C387.174 345.758 378.547 351.144 371.902 362.441C367.004 358.5 365.92 356.996 364.297 351.002C364.848 349.075 365.304 347.122 365.664 345.15C370.493 317.787 340.134 314.242 320.726 312.247C298.526 309.965 281.569 280.976 303.744 265.723Z"/><path fill="#DA942E" d="M615.739 103.462C619.517 107.641 621.302 110.297 622.698 115.529C629.613 141.703 611.061 157.057 591.51 170.203C580.442 177.645 570.993 190.715 569.391 204.354C567.382 221.461 584.863 238.734 599.114 224.674C599.667 224.125 600.207 223.562 600.734 222.986C599.256 231.94 592.367 240.404 582.512 238.949C574.442 237.824 567.213 233.369 562.583 226.664C557.461 219.306 556.469 210.496 556.986 201.817C558.654 173.796 575.234 158.464 595.772 142.212C601.536 137.652 607.858 132.329 611.73 126.049C616.985 117.525 614.241 111.943 615.739 103.462Z"/><path fill="#DA942E" d="M714.386 232.421C720.026 243.788 715.929 253.424 705.283 258.981C687.517 268.254 661.532 270.027 652.935 291.828L651.51 295.407C650.372 290.02 648.435 284.623 646.46 279.479C653.203 274.361 659.226 264.197 668.225 259.782C672.442 257.624 677.868 254.85 682.589 253.991C697.377 251.299 710.593 250.281 714.386 232.421Z"/><path fill="#DA942E" d="M635.468 203.256C635.525 203.673 635.594 204.087 635.66 204.503C637.015 213.05 624.875 228.756 632.828 234.691C635.707 236.84 639.406 236.547 642.744 235.916C649.122 234.709 654.44 232.258 660.419 229.964C659.014 232.807 658.051 234.145 655.39 236.209C650.074 240.331 644.352 244.223 637.743 245.897C633.203 247.047 627.314 247.185 623.304 244.414C620.589 242.47 618.984 238.977 618.571 235.75C618.109 232.142 619.159 229.415 620.788 226.271C624.467 219.171 631.26 214.119 633.825 206.379C634.242 205.123 634.282 204.958 635.055 203.916L635.468 203.256Z"/><path fill="#FCFCFC" d="M583.098 104.21C587.361 104.051 595.675 104.112 599.39 106.037C607.378 110.177 606.154 116.632 598.172 119.754C574.672 112.135 559.804 124.49 549.249 144.668C546.865 149.394 541.491 157.877 536.002 153.401C528.634 147.392 545.013 124.997 548.527 120.999C557.367 111.038 569.803 104.998 583.098 104.21Z"/><path fill="#FCFCFC" d="M462.846 188.692C467.382 188.086 470.972 191.69 469.926 196.269C469.292 199.433 465.008 198.641 462.5 198.637C452.227 198.621 446.575 207.713 444.659 216.788C444.043 219.707 443.661 220.909 441.722 223.33C432.602 224.834 433.41 218.179 435.403 211.756C439.697 197.915 448.788 190.305 462.846 188.692Z"/><path fill="#FCFCFC" d="M530.561 164.185C541.476 163.796 541.918 168.674 539.192 177.309C538.426 179.735 537.494 180.511 535.683 182.073C522.41 185.05 525.385 168.616 530.561 164.185Z"/><path fill="#FCFCFC" d="M687.251 228.091C690.349 227.836 693.219 227.443 696.303 228.311C702.133 229.953 704.946 237.293 697.875 239.701L697.032 239.999C692.591 240.082 686.075 240.746 683.382 236.507C681.039 232.82 684.152 229.828 687.251 228.091Z"/><path fill="#FCFCFC" d="M323.14 269.109C331.88 268.649 339.145 270.798 346.68 275.038C341.472 274.579 336.814 273.718 331.565 274.912L330.599 275.117C326.091 276.406 323.308 278.027 319.245 280.055C314.418 282.465 310.538 275.507 315.065 272.275C318.165 270.062 319.542 269.777 323.14 269.109Z"/><path fill="#FCFCFC" d="M477.972 192.541C488.492 192.601 489.543 202.822 481.516 206.49C473.124 205.9 468.974 196.821 477.972 192.541Z"/><path fill="#FCFCFC" d="M436.802 227.539C445.229 227.377 449.352 232.162 442.686 238.537C435.407 240.461 430.233 233.164 436.802 227.539Z"/><path fill="#FCFCFC" d="M670.65 230.976C679.443 230.589 682.592 235.325 673.782 240.991C665.169 241.168 660.968 235.277 670.65 230.976Z"/><path fill="#FCFCFC" d="M400.704 263.02C403.248 262.949 404.572 262.965 407.056 263.743C408.167 264.091 413.228 266.618 412.466 267.986C412.154 268.156 405.93 268.094 403.645 268.447L402.992 268.717C400.222 269.84 396.648 274.178 395.505 270.204C394.291 265.983 397.271 264.243 400.704 263.02Z"/><path fill="#FCFCFC" d="M564.775 145.619C566.568 144.966 569.936 144.645 570.697 144.276C571.395 143.288 570.644 137.603 572.457 136.644C573.181 136.262 573.493 140.257 573.518 140.5C573.646 141.742 573.899 143.004 574.082 144.246C577.798 145.12 580.823 145.794 584.459 147.01C580.892 147.357 577.691 147.366 574.217 147.67C573.538 152.02 573.521 154.043 572.529 158.424C571.41 152.947 573.005 147.912 567.235 147.344C566.518 147.341 563.206 147.648 563.198 146.344C563.639 145.827 564.124 145.752 564.775 145.619Z"/><path fill="#FAF7E1" d="M567.235 147.344C566.518 147.341 563.206 147.648 563.198 146.344C563.639 145.827 564.124 145.752 564.775 145.619C565.808 146.85 565.711 146.761 567.235 147.344Z"/><path fill="#FCFCFC" d="M625.33 204.026C636.94 207.052 618.609 212.421 615.425 214.596L614.966 214.914C614.348 215.338 612.127 217.305 611.442 216.716C610.98 215.15 617.006 209.586 618.026 208.257C619.871 205.854 622.482 204.737 625.33 204.026Z"/><path fill="#FAF7E1" d="M365.155 292.809C366.464 294.008 365.626 294.222 366.454 295.534C366.91 296.257 369.877 295.776 370.123 297.031C369.662 298.026 367.051 297.834 366.449 298.287C365.828 298.754 365.781 301.924 365.345 303.591C364.939 301.719 364.763 300.161 364.502 298.324C364.4 297.611 360.994 298.357 360.448 297.25C360.738 294.849 363.44 299.545 365.155 292.809Z"/><path fill="#FCFCFC" d="M537.72 244.335C535.573 239.44 534.315 242.222 533.523 240.703C534.012 239.34 536.513 241.343 537.132 237.768C537.911 233.272 539.554 239.447 539.896 239.926L539.129 241.496C539.082 242.261 539.164 242.73 539.242 243.497L539.144 244.501C538.968 246.723 538.226 245.662 537.72 244.335Z"/><path fill="#FAF7E1" d="M537.72 244.335C538.127 244.041 538.782 243.735 539.242 243.497L539.144 244.501C538.968 246.723 538.226 245.662 537.72 244.335Z"/><path fill="#FAF7E1" d="M539.896 239.926C546.253 240.318 542.628 241.297 539.129 241.496L539.896 239.926Z"/><path fill="#FDC632" d="M640.288 380.814C645.8 394.45 648.946 407.548 651.969 421.779C662.068 469.334 658.184 518.817 639.008 563.647C626.145 593.716 604.06 624.275 581.251 647.761C577.805 651.31 571.088 658.437 567.235 661.39C566.127 652.189 564.551 645.901 561.693 637.124C560.847 634.812 559.973 632.51 559.071 630.218C544.327 593.006 519.958 561.817 486.003 540.013C476.933 534.19 466.242 529.416 456.395 525.143C465.879 522.17 474.974 518.074 483.486 512.942C510.753 496.262 532.037 471.375 544.286 441.851C548.215 432.238 549.919 425.4 552.418 415.429C577.323 411.76 592.53 408.18 615.898 397.141C626.154 391.446 630.954 388.196 640.288 380.814Z"/><path fill="#DA942E" d="M640.288 380.814C645.8 394.45 648.946 407.548 651.969 421.779C662.068 469.334 658.184 518.817 639.008 563.647C626.145 593.716 604.06 624.275 581.251 647.761C577.805 651.31 571.088 658.437 567.235 661.39C566.127 652.189 564.551 645.901 561.693 637.124C562.044 636.763 562.554 636.262 562.816 635.83C575.38 615.084 588.523 593.878 598.13 571.586C622.078 516.013 625.585 456.402 615.898 397.141C626.154 391.446 630.954 388.196 640.288 380.814Z"/><path fill="#D9122D" d="M371.046 519.915C377.69 520.759 387.374 525.013 395.359 526.23C404.759 527.925 414.166 528.223 423.604 529.703C480.748 538.665 529.304 584.183 547.979 638.054C551.856 649.239 553.812 661.062 555.863 672.49C548.606 678.325 541.106 683.852 533.384 689.055C516.383 699.773 494.725 712.205 473.988 710.174C465.924 709.384 457.885 704.69 450.947 700.763C446.952 679.578 437.168 643.77 423.61 626.721C395.114 590.886 383.188 564.23 371.046 519.915Z"/><path fill="#FCFCFC" d="M392.275 534.003C400.794 533.685 401.515 543.88 403.486 550.799C413.7 586.79 440.635 613.136 455.701 646.664C458.807 653.574 462.131 657.211 453.511 660.63C448.823 659.228 445.337 648.292 442.372 643.006C430.073 621.087 414.433 604.26 402.552 581.855C398.503 574.219 385.701 547.423 387.353 537.766C387.679 535.864 390.55 534.76 392.275 534.003Z"/><path fill="#FCFCFC" d="M458.154 667.908C464.437 668.552 464.243 673.217 465.431 678.757L466.137 682.742C467.341 689.442 470.016 694.822 463.482 698.124C458.328 697.746 457.814 695.883 457.039 690.497L456.077 684.245C455.544 680.93 453.897 674.533 453.978 671.271C454.005 670.171 457.187 668.45 458.154 667.908Z"/><path fill="#235FDB" d="M383.542 381.697C388.852 385.842 396.239 391.446 402.297 394.54C431.78 409.596 464.377 416.964 497.321 418.373C513.066 419.047 523.968 417.878 538.886 417.438C531.438 445.762 516.764 468.459 495.526 488.164C456.076 520.965 415.074 522.998 368.616 504.466C364.056 461.615 368.287 422.264 383.542 381.697Z"/><path fill="#FCFCFC" d="M387.92 400.52C402.622 398.703 396.795 412.249 394.992 421.002C393.721 427.328 392.593 433.682 391.609 440.059C390.46 447.418 390.267 453.982 389.353 461.301C389.072 463.546 387.605 464.539 385.816 465.68C377.303 467.286 375.622 463.394 376.2 455.488C377.048 445.206 378.405 434.371 380.442 424.266C381.666 418.19 383.524 404.468 387.92 400.52Z"/><path fill="#FCFCFC" d="M380.965 476.963C390.383 477.213 389.774 481.334 389.557 490.008C389.52 491.501 387.771 493.089 386.483 493.713L385.784 494.073C383.399 494.067 378.602 493.954 377.784 491.393C375.734 484.977 375.163 480.294 380.965 476.963Z"/><path fill="#DA942E" d="M411.63 330.073C416.41 318.855 410.738 309.767 415.868 301.538C429.218 280.121 445.619 306.115 462.753 299.807C483.997 294.193 475.27 272.29 481.989 260.539C490.467 245.712 507.123 258.58 507.788 272.598C508.21 281.506 518.768 288.835 527.947 287.992C549.055 286.053 550.437 258.608 570.454 254.118C584.971 250.302 590.967 259.662 597.038 270.808C603.875 283.362 615.398 274.383 624.963 271.426C643.152 265.801 647.36 285.511 650.87 298.582C652.221 305.163 653.932 311.601 660.193 315.333C674.825 323.855 689.509 314.743 706.094 316.453C732.386 319.165 765.117 332.374 772.398 360.523C777.487 380.195 753.381 399.76 735.767 386.825C728.029 381.142 726.028 372.406 722.447 364.027C714.511 344.142 692.147 328.86 670.499 330.977C657.081 332.288 647.861 342.345 639.533 352.233C593.051 306.017 490.562 302.555 431.12 322.543C425.867 324.062 417.019 327.898 411.63 330.073Z"/><path fill="#FDC632" d="M411.63 330.073C416.41 318.855 410.738 309.767 415.868 301.538C429.218 280.121 445.619 306.115 462.753 299.807C483.997 294.193 475.27 272.29 481.989 260.539C490.467 245.712 507.123 258.58 507.788 272.598C508.21 281.506 518.768 288.835 527.947 287.992C549.055 286.053 550.437 258.608 570.454 254.118C584.971 250.302 590.967 259.662 597.038 270.808C603.875 283.362 615.398 274.383 624.963 271.426C643.152 265.801 647.36 285.511 650.87 298.582L650.124 299.675C648.857 299.25 648.29 297.461 647.714 296.251C645.221 291.007 641.99 286.162 636.211 284.195C621.811 279.294 609.615 294.566 595.189 291.01C583.469 288.121 576.937 266.374 564.859 272.282C561.514 273.918 558.217 277.825 555.543 280.427C547.744 288.015 535.587 298.553 523.786 294.987C510.447 290.957 502.28 266.791 490.337 273.115C481.885 277.59 481.587 300.28 462.229 304.547C453.751 306.416 445.431 304.503 436.925 305.159C429.289 310.333 428.209 314.189 431.12 322.543C425.867 324.062 417.019 327.898 411.63 330.073Z"/><path fill="#FCFCFC" d="M709.655 331.646C723.59 335.813 736.877 340.577 744.824 354.135C745.907 355.621 748.178 362.633 746.945 364.243C737.558 376.495 735.095 362.145 732.61 356.196C729.825 349.527 716.202 336.381 709.722 333.605L709.655 331.646Z"/><path fill="#FAF7E1" d="M709.722 333.605C709.097 333.213 706.432 331.834 706.33 331.249C706.745 330.71 708.949 331.516 709.655 331.646L709.722 333.605Z"/><path fill="#235FDB" d="M539.548 701.141C544.268 697.707 550.428 693.875 554.76 690.354C563.319 683.399 571.829 675.873 580.268 668.728C573.984 690.311 569.865 712.564 574.659 734.845C576.342 742.665 578.022 750.48 579.739 758.292L588.128 797.526C578.983 802.844 568.136 808.261 557.833 810.879C551.467 812.497 545.716 813.728 539.277 814.934C509.207 820.565 461.004 815.417 436.004 797.38C438.909 782.142 442.729 766.635 446.053 751.45C448.713 739.294 451.159 729.749 452.155 717.224C456.96 719.326 462.052 721.466 467.151 722.699C491.05 728.479 519.566 713.478 539.548 701.141Z"/><path fill="#184096" d="M539.548 701.141C544.268 697.707 550.428 693.875 554.76 690.354C563.319 683.399 571.829 675.873 580.268 668.728C573.984 690.311 569.865 712.564 574.659 734.845C576.342 742.665 578.022 750.48 579.739 758.292L588.128 797.526C578.983 802.844 568.136 808.261 557.833 810.879C552.602 784.899 545.882 759.037 540.825 732.971C539.523 726.26 541.022 704.824 539.548 701.141Z"/><path fill="#FCFCFC" d="M460.758 731.429C461.125 731.407 461.493 731.392 461.862 731.385C465.602 731.319 468.181 732.553 467.685 736.846C466.402 745.32 463.996 755.208 461.782 763.454C460.097 769.733 456.554 790.608 452.406 794.205C449.454 794.355 445.003 793.161 445.754 789.767C447.872 780.197 455.865 736.499 460.758 731.429Z"/><path fill="#FDC632" d="M423.496 857.084C465.675 883.184 520.814 888.268 567.699 872.615C581.097 868.343 588.839 864.282 600.842 857.385C603.515 868.536 606.847 878.16 603.674 889.574C597.093 913.246 572.383 922.596 550.628 927.455C540.238 929.775 528.581 931.897 517.781 932.057C513.759 932.11 510.034 932.227 506.002 931.995C498.108 932.07 481.585 929.905 473.838 927.848C456.119 923.144 435.009 917.1 425.138 900.3C415.67 884.185 419.527 873.777 423.496 857.084Z"/><path fill="#DA942E" d="M567.699 872.615C581.097 868.343 588.839 864.282 600.842 857.385C603.515 868.536 606.847 878.16 603.674 889.574C597.093 913.246 572.383 922.596 550.628 927.455C540.238 929.775 528.581 931.897 517.781 932.057C517.197 931.894 514.55 931.65 514.981 930.687C515.823 930.151 517.507 931.634 517.913 929.685C549.396 922.298 567.577 906.434 567.699 872.615Z"/><path fill="#DA942E" d="M506.002 931.995C508.291 930.407 515.469 929.447 517.913 929.685C517.507 931.634 515.823 930.151 514.981 930.687C514.55 931.65 517.197 931.894 517.781 932.057C513.759 932.11 510.034 932.227 506.002 931.995Z"/><path fill="#FCFCFC" d="M433.823 872.39C436.633 872.29 439.335 872.302 440.922 875.008C442.332 877.412 440.22 881.163 440.439 884.5C440.437 890.631 443.34 895.664 449.195 898.158C455.612 900.891 457.469 903.928 452.024 909.291C446.098 909.69 437.869 902.767 434.515 898.239C429.749 891.803 428.373 878.709 433.823 872.39Z"/><path fill="#235FDB" d="M484.488 325.282C485.347 326.213 488.189 334.176 488.928 336.104C500.3 365.754 518.967 382.034 544.778 398.915C518.378 403.221 485.064 401.521 459.04 395.99C440.28 392.623 418.429 385.344 402.656 374.857C387.811 364.421 392.762 357.362 405.68 349.669C429.055 335.748 457.694 328.385 484.488 325.282Z"/><path fill="#FCFCFC" d="M464.476 335.165C476.457 333.343 475.2 345.184 470.641 346.09C448.213 350.546 433.5 357.582 414.024 369.993C409.959 371.332 405.878 369.621 405.004 365.166C404.307 359.874 411.89 355.523 415.693 353.581C430.202 346.171 448.371 337.707 464.476 335.165Z"/><path fill="#D9122D" d="M433.02 810.561C437.281 813.026 443.786 816.855 448.277 818.612C483.778 832.501 522.626 834.085 559.133 824.65C571.661 821.48 580.182 816.94 591.693 811.886C592.004 814.169 592.186 815.439 592.638 817.745L593.635 822.744L595.118 829.743C596.016 834.016 597 838.276 597.877 842.558L596.315 843.662C587.001 850.307 577.424 855.355 566.486 858.924C530.468 874.453 455.069 870.282 426.189 842.105C428.711 834.132 431.508 819.04 433.02 810.561Z"/><path fill="#A60C23" d="M559.133 824.65C571.661 821.48 580.182 816.94 591.693 811.886C592.004 814.169 592.186 815.439 592.638 817.745L593.635 822.744L595.118 829.743C596.016 834.016 597 838.276 597.877 842.558L596.315 843.662C587.001 850.307 577.424 855.355 566.486 858.924C563.7 851.566 561.461 828.817 559.133 824.65Z"/><path fill="#FCFCFC" d="M441.874 820.002C446.957 820.293 450.241 822.423 448.755 827.684C447.007 833.873 447.125 842.048 441.657 845.664C432.852 846.605 435.078 838.787 436.345 833.488L436.888 831.234C436.96 830.911 437.033 830.587 437.105 830.263L437.65 828.009C438.763 823.653 438.368 822.485 441.874 820.002Z"/><path fill="#D9122D" d="M497.958 324.065C538.573 323.914 593.167 331.553 626.198 358.434C631.83 363.017 628.644 367.436 624.204 371.324C618.375 376.273 610.599 380.464 603.555 383.488C590.117 388.878 581.802 391.764 567.872 395.452C536.778 382.396 514.312 363.254 501.073 331.508C499.799 328.822 499.003 326.827 497.958 324.065Z"/><path fill="#A60C23" d="M497.958 324.065C538.573 323.914 593.167 331.553 626.198 358.434C631.83 363.017 628.644 367.436 624.204 371.324C618.375 376.273 610.599 380.464 603.555 383.488C599.799 379.225 595.23 373.863 591.298 369.875C569.509 347.773 532.045 331.916 501.073 331.508C499.799 328.822 499.003 326.827 497.958 324.065Z"/><path fill="#090909" d="M750.341 95.6946C750.866 95.6536 751.391 95.6189 751.916 95.5904C759.024 95.2202 768.892 97.9092 773.608 103.106C783.462 113.963 782.108 132.997 769.922 141.546C761.596 147.387 753.157 147.442 744.185 150.567C726.185 156.834 709.422 165.53 694.007 176.665C684.491 183.599 675.778 192.428 667.594 200.851C661.898 207.155 659.26 211.511 654.244 217.412L653.603 217.433C652.272 215.791 652.359 212.225 652.568 210.122C656.092 174.684 671.514 139.225 700.389 117.336C714.876 106.354 732.743 97.6204 750.341 95.6946Z"/><path fill="#FDC632" d="M739.685 101.436C748.507 99.3788 758.105 97.4274 766.406 102.605C771.423 105.734 774.947 110.537 776.153 116.367C777.357 122.205 776.074 128.282 772.611 133.135C770.285 136.489 767.152 139.203 763.5 141.026C757.231 144.162 748.213 145.44 741.427 147.718C731.107 151.183 720.622 155.932 711.171 161.307C690.323 173.344 671.851 189.091 656.668 207.772C657.556 201.162 658.781 192.056 660.789 185.792C671.243 144.165 698.342 114.014 739.685 101.436Z"/><path fill="#DA942E" d="M739.685 101.436C748.507 99.3788 758.105 97.4274 766.406 102.605C771.423 105.734 774.947 110.537 776.153 116.367C777.357 122.205 776.074 128.282 772.611 133.135C770.285 136.489 767.152 139.203 763.5 141.026C757.231 144.162 748.213 145.44 741.427 147.718C731.107 151.183 720.622 155.932 711.171 161.307C690.323 173.344 671.851 189.091 656.668 207.772C657.556 201.162 658.781 192.056 660.789 185.792C663.577 184.569 670.852 177.519 673.448 175.161C688.896 161.135 704.709 149.387 724.22 141.499C728.947 139.588 737.159 136.463 741.411 133.807C744.514 131.908 747.162 129.353 749.168 126.32C757.306 114.246 749.986 107.517 739.685 101.436Z"/><path fill="#FCFCFC" d="M739.539 113.137C751.103 111.734 750.949 122.863 741.935 124.602C715.885 129.626 698.976 144.313 681.999 163.681C679.844 166.273 678.693 167.432 676.229 169.723C687.336 144.206 711.433 118.564 739.539 113.137Z"/><path fill="#090909" d="M275.326 172.145C282.533 171.044 295.689 172.607 302.771 174.131C337.072 181.511 376.856 219.735 383.371 254.408C376.567 249.364 372.627 244.867 364.718 239.698C342.604 225.734 315.494 218.168 289.46 220.439C278.162 221.424 266.148 225.078 255.915 218.144C245.659 211.195 242.975 194.745 250.337 184.7C256.006 177.014 266.342 173.463 275.326 172.145Z"/><path fill="#FDC632" d="M253.699 186.721C260.153 179.296 268.644 176.125 278.332 175.53C309.507 173.613 338.466 191.236 358.059 214.359C360.894 217.706 363.691 221.157 365.836 224.866C368.328 226.953 374.178 239.121 375.582 242.453C362.736 234.196 351.522 226.451 336.481 222.043C320.26 217.288 303.629 215.418 286.753 216.739C277.528 217.461 269.223 221.144 260.355 216.12C248.832 209.592 247.246 197.579 253.699 186.721Z"/><path fill="#DA942E" d="M253.699 186.721C262.451 210.466 273.353 202.637 294.085 203.564C302.361 203.933 310.81 203.974 319.018 205.248C324.949 205.978 339.068 211.933 341.524 211.666L345.259 213.787C347.462 216.246 363.071 224.628 365.836 224.866C368.328 226.953 374.178 239.121 375.582 242.453C362.736 234.196 351.522 226.451 336.481 222.043C320.26 217.288 303.629 215.418 286.753 216.739C277.528 217.461 269.223 221.144 260.355 216.12C248.832 209.592 247.246 197.579 253.699 186.721Z"/><path fill="#FCFCFC" d="M341.524 211.666C328.667 202.197 307.369 194.418 291.393 194.589C286.217 194.644 281.351 195.841 276.232 196.231C273.739 196.414 269.027 195.785 268.544 192.533C267.801 184.566 276.874 183.813 282.299 183.525C302.978 182.429 323.56 190.799 338.67 204.71C340.671 206.564 345.134 211.071 345.259 213.787L341.524 211.666Z"/><path fill="#090909" d="M345.669 360.222C348.549 360.127 358.5 358.767 358.417 362.81C357.623 363.826 356.51 364.872 355.308 365.332C346.699 368.628 339.222 372.147 331.261 376.992C321.731 382.76 313.296 390.17 306.349 398.878C291.591 417.191 298.328 436.634 281.585 451.128C277.35 454.794 269.777 454.794 264.369 453.635C236.452 443.342 248.859 412.583 263.371 396.529C285.876 371.632 312.992 362.257 345.669 360.222Z"/><path fill="#FDC632" d="M336.171 364.588C336.869 364.539 349.696 362.944 344.608 365.524C322.422 376.273 301.352 391.526 293.178 415.762C289.314 427.22 290.144 442.563 277.66 448.89C270.071 452.736 262.233 450.35 256.534 444.602C254.096 441.897 252.457 438.569 251.799 434.988C250.046 425.15 256.158 412.512 261.802 404.744C277.175 383.587 302.433 369.709 327.903 365.428C329.737 364.921 334.28 364.58 336.171 364.588Z"/><path fill="#DA942E" d="M336.171 364.588C336.869 364.539 349.696 362.944 344.608 365.524C322.422 376.273 301.352 391.526 293.178 415.762C289.314 427.22 290.144 442.563 277.66 448.89C270.071 452.736 262.233 450.35 256.534 444.602C277.812 443.929 280.023 424.059 284.829 408.044C285.929 404.381 288.953 401.258 289.867 397.093C291.676 394.409 296.124 390.507 298.566 388.118C304.396 382.596 310.823 377.607 317.376 372.989C320.028 371.12 326.672 368.035 327.903 365.428C329.737 364.921 334.28 364.58 336.171 364.588Z"/><path fill="#DA942E" d="M336.171 364.588C336.869 364.539 349.696 362.944 344.608 365.524C340.695 364.914 339.95 365.805 336.171 364.588Z"/><path fill="#FCFCFC" d="M289.867 397.093C283.293 403.314 280.244 412.956 278.054 421.507C277.455 424.863 276.354 427.744 272.749 428.49C269.818 429.096 266.893 425.866 266.993 423.243C267.238 416.758 272.554 407.357 277.139 402.81C282.46 397.533 290.546 390.764 297.523 388.108C297.61 388.11 297.698 388.112 297.785 388.114L298.566 388.118C296.124 390.507 291.676 394.409 289.867 397.093Z"/><path fill="#090909" d="M754.757 260.208C758.165 259.782 763.614 260.662 766.632 262.206C770.444 264.127 773.273 267.562 774.427 271.671C775.514 275.4 775.06 279.408 773.165 282.799C767.6 292.561 756.29 290.819 748.005 285.929C740.683 281.007 734.593 275.981 726.086 274.134C724.302 273.746 724.059 273.015 723.377 271.674C724.705 264.453 748.733 260.734 754.757 260.208Z"/><path fill="#DA942E" d="M737.517 267.202C747.449 264.095 759.655 261.535 768.648 267.913L768.993 268.406C770.989 271.22 772.746 275.798 771.253 278.74C763.136 294.739 749.566 282.707 740.147 275.824C736.703 273.308 732.294 271.911 729.031 270.62C732.065 269.221 734.323 268.204 737.517 267.202Z"/><path fill="#FDC632" d="M737.517 267.202C747.449 264.095 759.655 261.535 768.648 267.913C765.189 275.847 760.941 277.098 752.798 277.027C747.432 273.895 742.655 270.687 737.517 267.202Z"/><path fill="#090909" d="M274.331 326.219C278.24 325.79 299.354 327.403 298.499 334.019C298.317 335.429 294.467 336.99 292.992 337.594C284.512 341.065 279.263 349.219 271.994 353.932C263.546 358.905 251.712 358.578 249.473 347.003C246.317 330.687 261.507 327.276 274.331 326.219Z"/><path fill="#DA942E" d="M275.218 330.051C282.182 330.009 286.886 331.038 293.428 333.258C289.23 335.107 287.069 336.052 283.381 338.859C277.825 343.087 267.907 356.163 259.694 353.184C257.209 352.266 255.189 350.401 254.076 347.997C253.449 346.641 253.107 344.86 252.814 343.395C254.714 331.155 264.828 330.408 275.218 330.051Z"/><path fill="#FDC632" d="M252.814 343.395C254.714 331.155 264.828 330.408 275.218 330.051C275.964 330.243 277.974 330.571 278.478 330.801C278.892 333.468 263.087 349.896 252.814 343.395Z"/><path fill="#090909" d="M663.447 86.0512C679.458 85.723 685.484 108.627 662.01 114.594L660.011 115.106C653.28 116.886 648.928 118.322 643.616 123.078C642.066 124.657 640.815 126.392 639.357 127.864C634.926 132.339 634.937 125.766 635.422 122.998C636.624 116.122 639.956 108.806 643.517 102.779C648.483 94.3728 653.804 88.5312 663.447 86.0512Z"/><path fill="#FDC632" d="M663.842 90.1054C670.324 90.3886 674.74 94.0736 673.326 101.209C671.763 109.094 661.236 110.58 655.007 112.603C651.777 113.652 649.252 115.127 646.241 116.931C643.981 118.515 641.701 120.249 639.448 121.879C642.948 110.214 650.84 92.9721 663.842 90.1054Z"/><path fill="#FCFCFC" d="M660.155 96.0284C661.716 95.9975 666.971 95.9142 665.35 98.7057C664.469 100.224 656.038 102.719 653.445 104.191C653.811 103.913 649.203 107.697 650.181 105.445C651.958 101.357 656.492 98.377 660.155 96.0284Z"/><path fill="#090909" d="M371.551 148.04C377.668 147.814 382.133 148.783 386.817 153.184C393.368 159.341 399.684 173.314 400.439 182.25C401.059 189.585 401.298 195.021 394.856 187.495C390.527 181.649 383.861 176.622 376.757 174.95C363.029 171.718 355.436 154.605 371.551 148.04Z"/><path fill="#FDC632" d="M372.352 152.071C382.279 151.802 385.883 156.6 390.668 164.885C393.589 170.332 396.106 176.888 396.748 183.02C396.843 183.93 393.906 180.58 394.02 180.699C388.241 175.477 384.21 173.412 377.003 170.968C373.276 169.583 369.229 167.481 367.738 163.535C365.726 158.21 367.191 154.28 372.352 152.071Z"/><path fill="#FCFCFC" d="M374.906 156.889C381.014 157.186 382.854 159.285 386.583 164.203C387.538 165.462 387.883 165.87 387.626 167.382C385.713 165.981 383.546 164.084 381.685 162.56C378.642 160.069 373.229 160.863 374.906 156.889Z"/></svg>